<svg width="160" height="30" viewBox="0 0 160 30" fill="none" xmlns="http://www.w3.org/2000/svg">
<g clip-path="url(#clip0_236_1694)">
<mask id="mask0_236_1694" style="mask-type:luminance" maskUnits="userSpaceOnUse" x="2" y="0" width="27" height="29">
<path d="M4.03177 16.956C3.98842 16.761 3.98944 16.5587 4.03476 16.3642C4.08008 16.1696 4.16854 15.9877 4.29359 15.8319C4.41865 15.6762 4.57711 15.5505 4.75727 15.4642C4.93743 15.3779 5.13467 15.3331 5.33444 15.3333H26.0104C26.2101 15.3333 26.4072 15.3782 26.5872 15.4646C26.7672 15.551 26.9255 15.6767 27.0504 15.8325C27.1753 15.9882 27.2636 16.17 27.3089 16.3645C27.3541 16.559 27.3551 16.7611 27.3118 16.956L25.2378 26.2893C25.1719 26.5855 25.007 26.8504 24.7703 27.0402C24.5336 27.23 24.2392 27.3334 23.9358 27.3333H7.40777C7.10446 27.3333 6.81023 27.2298 6.57364 27.04C6.33706 26.8502 6.17226 26.5854 6.10644 26.2893L4.03177 16.956Z" fill="#555555" stroke="white" stroke-width="2.66667" stroke-linecap="round" stroke-linejoin="round"/>
<path d="M15.6718 10V15.3333M13.4338 5.926C14.3878 4.67267 15.1238 2.94 15.5211 2C16.2171 2.94 17.7278 5.29867 18.2051 6.55267C18.8011 8.11933 17.3104 10 15.5211 10C13.7318 10 12.2411 7.49333 13.4338 5.926Z" stroke="white" stroke-width="2.66667" stroke-linecap="round" stroke-linejoin="round"/>
</mask>
<g mask="url(#mask0_236_1694)">
<path d="M-0.328125 -0.666687H31.6719V31.3333H-0.328125V-0.666687Z" fill="#F97316"/>
</g>
<path d="M44.992 27.512C43.52 27.512 42.208 27.16 41.056 26.456C39.9253 25.7307 39.04 24.728 38.4 23.448C37.76 22.168 37.44 20.696 37.44 19.032C37.44 17.368 37.7493 15.896 38.368 14.616C39.008 13.3147 39.8933 12.3013 41.024 11.576C42.176 10.8507 43.488 10.488 44.96 10.488C46.24 10.488 47.392 10.7653 48.416 11.32C49.4613 11.8533 50.2933 12.6 50.912 13.56C51.552 14.52 51.9253 15.6187 52.032 16.856L49.536 17.176C49.4507 15.8747 48.9813 14.8293 48.128 14.04C47.2747 13.2293 46.2187 12.824 44.96 12.824C43.9573 12.824 43.072 13.0907 42.304 13.624C41.5573 14.136 40.9707 14.8613 40.544 15.8C40.1387 16.7387 39.936 17.816 39.936 19.032C39.936 20.8667 40.3947 22.3493 41.312 23.48C42.2293 24.6107 43.4453 25.176 44.96 25.176C46.2187 25.176 47.264 24.792 48.096 24.024C48.9493 23.256 49.4293 22.2533 49.536 21.016L52.032 21.336C51.9253 22.5307 51.552 23.5973 50.912 24.536C50.2933 25.4747 49.4613 26.2107 48.416 26.744C47.392 27.256 46.2507 27.512 44.992 27.512ZM60.4448 27.512C59.4421 27.512 58.5248 27.2987 57.6927 26.872C56.8821 26.424 56.2421 25.816 55.7728 25.048C55.3034 24.28 55.0688 23.4267 55.0688 22.488C55.0688 20.9733 55.6768 19.7573 56.8928 18.84C58.1088 17.9227 59.8368 17.368 62.0768 17.176C63.3781 17.048 64.3168 16.8027 64.8928 16.44C65.4901 16.0773 65.7674 15.576 65.7248 14.936C65.6821 14.2747 65.3301 13.7627 64.6688 13.4C64.0074 13.016 63.1434 12.824 62.0768 12.824C60.7754 12.824 59.7408 13.1333 58.9728 13.752C58.2048 14.3493 57.8208 15.16 57.8208 16.184L55.4848 15.864C55.4848 14.8613 55.7834 13.9547 56.3808 13.144C56.9994 12.312 57.8314 11.6613 58.8768 11.192C59.9221 10.7227 61.0954 10.488 62.3968 10.488C63.6341 10.488 64.6901 10.7227 65.5648 11.192C66.4394 11.64 67.1008 12.312 67.5488 13.208C67.9968 14.0827 68.2208 15.1493 68.2208 16.408V27H65.8208V22.52L66.1408 21.24C66.1408 22.456 65.8954 23.544 65.4048 24.504C64.9354 25.4427 64.2634 26.1787 63.3888 26.712C62.5354 27.2453 61.5541 27.512 60.4448 27.512ZM60.9248 25.176C61.8848 25.176 62.7274 24.9307 63.4528 24.44C64.1994 23.928 64.7754 23.224 65.1808 22.328C65.6074 21.4107 65.8208 20.376 65.8208 19.224V16.984L66.3008 16.568C66.3008 17.3573 65.9594 17.976 65.2768 18.424C64.6154 18.8507 63.6021 19.1173 62.2368 19.224C60.7221 19.352 59.5594 19.6827 58.7488 20.216C57.9594 20.7493 57.5648 21.464 57.5648 22.36C57.5648 23.192 57.8741 23.8747 58.4928 24.408C59.1114 24.92 59.9221 25.176 60.9248 25.176ZM83.0523 16.472C83.0523 15.32 82.7643 14.424 82.1883 13.784C81.6123 13.144 80.8016 12.824 79.7563 12.824C78.3056 12.824 77.1429 13.4107 76.2683 14.584C75.3936 15.736 74.9563 17.2827 74.9563 19.224L74.4763 16.152C74.4763 15.1067 74.7323 14.1573 75.2443 13.304C75.7563 12.4293 76.4496 11.7467 77.3243 11.256C78.2203 10.744 79.2016 10.488 80.2683 10.488C81.3136 10.488 82.2203 10.7333 82.9883 11.224C83.7776 11.7147 84.3856 12.408 84.8123 13.304C85.2389 14.2 85.4523 15.256 85.4523 16.472V27H83.0523V16.472ZM72.5563 11H74.9563V27H72.5563V11ZM96.0395 27.512C94.6955 27.512 93.5008 27.16 92.4555 26.456C91.4102 25.7307 90.5888 24.728 89.9915 23.448C89.4155 22.1467 89.1275 20.664 89.1275 19C89.1275 17.3573 89.4155 15.896 89.9915 14.616C90.5888 13.3147 91.4102 12.3013 92.4555 11.576C93.5222 10.8507 94.7275 10.488 96.0715 10.488C97.1808 10.488 98.1728 10.744 99.0475 11.256C99.9222 11.7467 100.594 12.44 101.064 13.336C101.554 14.232 101.8 15.2667 101.8 16.44V21.56C101.8 22.712 101.554 23.7467 101.064 24.664C100.573 25.56 99.8902 26.264 99.0155 26.776C98.1408 27.2667 97.1488 27.512 96.0395 27.512ZM96.5515 25.176C97.5115 25.176 98.3648 24.92 99.1115 24.408C99.8582 23.896 100.434 23.1707 100.84 22.232C101.266 21.2933 101.48 20.216 101.48 19C101.48 17.784 101.266 16.7067 100.84 15.768C100.434 14.8293 99.8582 14.104 99.1115 13.592C98.3648 13.08 97.5115 12.824 96.5515 12.824C95.5915 12.824 94.7382 13.08 93.9915 13.592C93.2448 14.104 92.6582 14.8293 92.2315 15.768C91.8262 16.7067 91.6235 17.784 91.6235 19C91.6235 20.216 91.8262 21.2933 92.2315 22.232C92.6582 23.1707 93.2448 23.896 93.9915 24.408C94.7382 24.92 95.5915 25.176 96.5515 25.176ZM101.512 4.6H103.912V27H101.512V4.6ZM108.873 4.28H111.273V27H108.873V4.28ZM122.68 27.512C121.208 27.512 119.896 27.16 118.744 26.456C117.613 25.7307 116.728 24.728 116.088 23.448C115.448 22.1467 115.128 20.6533 115.128 18.968C115.128 17.3253 115.437 15.864 116.056 14.584C116.674 13.2827 117.528 12.28 118.616 11.576C119.725 10.8507 120.984 10.488 122.392 10.488C123.8 10.488 125.048 10.8507 126.136 11.576C127.224 12.28 128.066 13.2827 128.664 14.584C129.261 15.8853 129.56 17.3787 129.56 19.064V19.64H117.624C117.624 20.728 117.837 21.688 118.264 22.52C118.69 23.352 119.277 24.0027 120.024 24.472C120.792 24.9413 121.666 25.176 122.648 25.176C123.757 25.176 124.696 24.8987 125.464 24.344C126.232 23.768 126.733 23.0107 126.968 22.072L129.464 22.392C129.144 23.9493 128.365 25.1973 127.128 26.136C125.89 27.0533 124.408 27.512 122.68 27.512ZM127.064 17.464C127.064 16.568 126.861 15.768 126.456 15.064C126.05 14.36 125.485 13.816 124.76 13.432C124.056 13.0267 123.245 12.824 122.328 12.824C121.41 12.824 120.589 13.0267 119.864 13.432C119.16 13.816 118.605 14.36 118.2 15.064C117.816 15.7467 117.624 16.5467 117.624 17.464H127.064ZM133.404 4.28H135.804V27H133.404V4.28ZM141.063 11H143.463V27H141.063V11ZM140.775 5.432H143.783V8.44H140.775V5.432ZM154.447 27C153.445 27 152.613 26.84 151.951 26.52C151.29 26.1787 150.789 25.6773 150.447 25.016C150.127 24.3547 149.967 23.5227 149.967 22.52V5.88H152.367V22.744C152.367 23.384 152.527 23.864 152.847 24.184C153.167 24.504 153.647 24.664 154.287 24.664H157.167V27H154.447ZM146.511 11H157.167V13.336H146.511V11Z" fill="black"/>
</g>
<defs>
<clipPath id="clip0_236_1694">
<rect width="160" height="30" fill="white"/>
</clipPath>
</defs>
</svg>
